<?xml version="1.0" standalone="no"?>
<!DOCTYPE svg PUBLIC "-//W3C//DTD SVG 20010904//EN"
 "http://www.w3.org/TR/2001/REC-SVG-20010904/DTD/svg10.dtd">
<svg version="1.0" xmlns="http://www.w3.org/2000/svg"
 width="500.000000pt" height="500.000000pt" viewBox="0 0 500.000000 500.000000"
 preserveAspectRatio="xMidYMid meet">
<metadata>
Created by potrace 1.14, written by Peter Selinger 2001-2017
</metadata>
<g transform="translate(0.000000,500.000000) scale(0.100000,-0.100000)"
fill="#000000" stroke="none">
<path d="M2300 4489 c-849 -93 -1539 -693 -1739 -1511 -30 -125 -36 -154 -50
-288 -9 -80 -7 -356 4 -430 75 -532 314 -967 717 -1303 203 -169 475 -309 758
-391 234 -67 615 -81 880 -31 546 103 1045 448 1335 923 189 312 283 635 290
1002 3 191 -10 328 -51 503 -2 9 -6 25 -8 36 -25 110 -108 323 -176 449 -294
545 -835 927 -1455 1028 -113 18 -391 25 -505 13z"/>
</g>
</svg>
